<svg width="47" height="47" viewBox="0 0 47 47" fill="none" xmlns="http://www.w3.org/2000/svg">
<g clip-path="url(#clip0_1_918)">
<path d="M42.8288 4.94962H38.9145V1.64493C38.9145 1.10884 38.4812 0.668213 37.9452 0.668213H34.1852C33.6491 0.668213 33.2084 1.10884 33.2084 1.64493V4.94962H13.9825V1.64493C13.9825 1.10884 13.5492 0.668213 13.0131 0.668213H9.25313C8.71703 0.668213 8.27641 1.10884 8.27641 1.64493V4.94962H4.17859C1.87266 4.94962 0 6.82228 0 9.12087V42.1531C0 44.459 1.87266 46.3316 4.17859 46.3316H42.8361C45.1347 46.3316 47.0073 44.459 47.0073 42.1531V9.12087C47 6.82228 45.1273 4.94962 42.8288 4.94962ZM42.8288 45.186H4.17859C2.50422 45.186 1.14562 43.8274 1.14562 42.1531V17.0962H45.8544V42.1531C45.8544 43.8274 44.4958 45.186 42.8288 45.186ZM9.25313 10.3693H13.0131C13.5492 10.3693 13.9825 9.93602 13.9825 9.39993V6.0879H33.2158V9.39993C33.2158 9.93602 33.6564 10.3693 34.1925 10.3693H37.9525C38.4886 10.3693 38.9219 9.93602 38.9219 9.39993V6.09524H42.8361C44.5031 6.09524 45.8544 7.45384 45.8544 9.12821V15.9579H1.14562V9.12821C1.14562 7.45384 2.50422 6.09524 4.17859 6.09524H8.28375V9.39993C8.28375 9.93602 8.71703 10.3693 9.25313 10.3693Z" fill="#00008B" stroke="#00008B" stroke-width="1.96875"/>
<path d="M9.22416 20.1366H4.79588C4.60494 20.1366 4.43604 20.2982 4.43604 20.4964V24.6897C4.43604 24.888 4.5976 25.0496 4.79588 25.0496H9.22416C9.42244 25.0496 9.584 24.8953 9.584 24.6897V20.4964C9.57666 20.3055 9.42244 20.1366 9.22416 20.1366ZM13.344 25.0496H17.7723C17.9706 25.0496 18.1321 24.8953 18.1321 24.6897V20.4964C18.1321 20.3055 17.9779 20.1366 17.7723 20.1366H13.344C13.1457 20.1366 12.9842 20.2982 12.9842 20.4964V24.6897C12.9915 24.888 13.1457 25.0496 13.344 25.0496ZM42.2563 20.1366H37.8281C37.6371 20.1366 37.4682 20.2982 37.4682 20.4964V24.6897C37.4682 24.888 37.6298 25.0496 37.8281 25.0496H42.2563C42.4546 25.0496 42.6162 24.8953 42.6162 24.6897V20.4964C42.6162 20.3055 42.4546 20.1366 42.2563 20.1366ZM26.3278 20.3789C26.1735 20.3789 26.034 20.4377 25.9238 20.5478L23.1699 23.3018L21.7379 21.8697C21.6278 21.7596 21.4882 21.7008 21.334 21.7008C21.1798 21.7008 21.0403 21.7596 20.9301 21.8697C20.7098 22.09 20.7098 22.4572 20.9301 22.6775L22.766 24.5135C22.8762 24.6236 23.0157 24.6824 23.1699 24.6824C23.3242 24.6824 23.4637 24.6236 23.5738 24.5135L26.7317 21.3557C26.952 21.1353 26.952 20.7682 26.7317 20.5478C26.6215 20.4377 26.482 20.3789 26.3278 20.3789ZM34.5968 20.3789C34.4426 20.3789 34.3031 20.4377 34.1929 20.5478L31.439 23.3018L30.007 21.8697C29.8968 21.7596 29.7573 21.7008 29.6031 21.7008C29.4488 21.7008 29.3093 21.7596 29.1992 21.8697C28.9788 22.09 28.9788 22.4572 29.1992 22.6775L31.0351 24.5135C31.1453 24.6236 31.2848 24.6824 31.439 24.6824C31.5932 24.6824 31.7328 24.6236 31.8429 24.5135L35.0007 21.3557C35.221 21.1353 35.221 20.7682 35.0007 20.5478C34.8906 20.4377 34.7437 20.3789 34.5968 20.3789ZM9.22416 28.3102H4.79588C4.60494 28.3102 4.43604 28.4718 4.43604 28.67V32.8633C4.43604 33.0616 4.5976 33.2232 4.79588 33.2232H9.22416C9.42244 33.2232 9.584 33.0689 9.584 32.8633V28.67C9.57666 28.4718 9.42244 28.3102 9.22416 28.3102ZM21.6131 33.2158H26.0413C26.2396 33.2158 26.4012 33.0616 26.4012 32.856V28.6627C26.4012 28.4718 26.247 28.3028 26.0413 28.3028H21.6131C21.4148 28.3028 21.2532 28.4644 21.2532 28.6627V32.856C21.2606 33.0616 21.4148 33.2158 21.6131 33.2158ZM42.2563 28.3102H37.8281C37.6371 28.3102 37.4682 28.4718 37.4682 28.67V32.8633C37.4682 33.0616 37.6298 33.2232 37.8281 33.2232H42.2563C42.4546 33.2232 42.6162 33.0689 42.6162 32.8633V28.67C42.6162 28.4718 42.4546 28.3102 42.2563 28.3102ZM18.0587 28.5452C17.9045 28.5452 17.7649 28.6039 17.6548 28.7141L14.9009 31.468L13.4688 30.036C13.3587 29.9258 13.2192 29.8671 13.0649 29.8671C12.9107 29.8671 12.7712 29.9258 12.661 30.036C12.4407 30.2563 12.4407 30.6235 12.661 30.8438L14.497 32.6797C14.6071 32.7899 14.7467 32.8486 14.9009 32.8486C15.0551 32.8486 15.1946 32.7899 15.3048 32.6797L18.4626 29.5219C18.6829 29.3016 18.6829 28.9344 18.4626 28.7141C18.3524 28.6039 18.2129 28.5452 18.0587 28.5452ZM34.5968 28.5452C34.4426 28.5452 34.3031 28.6039 34.1929 28.7141L31.439 31.468L30.007 30.036C29.8968 29.9258 29.7573 29.8671 29.6031 29.8671C29.4488 29.8671 29.3093 29.9258 29.1992 30.036C28.9788 30.2563 28.9788 30.6235 29.1992 30.8438L31.0351 32.6797C31.1453 32.7899 31.2848 32.8486 31.439 32.8486C31.5932 32.8486 31.7328 32.7899 31.8429 32.6797L35.0007 29.5219C35.221 29.3016 35.221 28.9344 35.0007 28.7141C34.8906 28.6039 34.7437 28.5452 34.5968 28.5452ZM9.22416 36.9832H4.79588C4.60494 36.9832 4.43604 37.1374 4.43604 37.343V41.5363C4.43604 41.7346 4.5976 41.8961 4.79588 41.8961H9.22416C9.42244 41.8961 9.584 41.7419 9.584 41.5363V37.343C9.57666 37.1447 9.42244 36.9832 9.22416 36.9832ZM17.7723 36.9832H13.344C13.1457 36.9832 12.9842 37.1374 12.9842 37.343V41.5363C12.9842 41.7346 13.1384 41.8961 13.344 41.8961H17.7723C17.9706 41.8961 18.1321 41.7419 18.1321 41.5363V37.343C18.1321 37.1447 17.9779 36.9832 17.7723 36.9832ZM42.2563 36.9832H37.8281C37.6371 36.9832 37.4682 37.1374 37.4682 37.343V41.5363C37.4682 41.7346 37.6298 41.8961 37.8281 41.8961H42.2563C42.4546 41.8961 42.6162 41.7419 42.6162 41.5363V37.343C42.6162 37.1447 42.4546 36.9832 42.2563 36.9832ZM26.3278 37.2182C26.1735 37.2182 26.034 37.2769 25.9238 37.3871L23.1699 40.141L21.7379 38.7089C21.6278 38.5988 21.4882 38.54 21.334 38.54C21.1798 38.54 21.0403 38.5988 20.9301 38.7089C20.7098 38.9293 20.7098 39.2964 20.9301 39.5168L22.766 41.3527C22.8762 41.4628 23.0157 41.5216 23.1699 41.5216C23.3242 41.5216 23.4637 41.4628 23.5738 41.3527L26.7317 38.1949C26.952 37.9746 26.952 37.6074 26.7317 37.3871C26.6215 37.2769 26.482 37.2182 26.3278 37.2182ZM34.5968 37.2182C34.4426 37.2182 34.3031 37.2769 34.1929 37.3871L31.439 40.141L30.007 38.7089C29.8968 38.5988 29.7573 38.54 29.6031 38.54C29.4488 38.54 29.3093 38.5988 29.1992 38.7089C28.9788 38.9293 28.9788 39.2964 29.1992 39.5168L31.0351 41.3527C31.1453 41.4628 31.2848 41.5216 31.439 41.5216C31.5932 41.5216 31.7328 41.4628 31.8429 41.3527L35.0007 38.1949C35.221 37.9746 35.221 37.6074 35.0007 37.3871C34.8906 37.2769 34.7437 37.2182 34.5968 37.2182Z" fill="#00008B"/>
</g>
<defs>
<clipPath id="clip0_1_918">
<rect width="47" height="47" fill="white"/>
</clipPath>
</defs>
</svg>
