<svg width="51" height="52" viewBox="0 0 51 52" fill="none" xmlns="http://www.w3.org/2000/svg">
<path fill-rule="evenodd" clip-rule="evenodd" d="M13.4165 0.916626C13.8807 0.916626 14.3258 1.101 14.654 1.42919C14.9822 1.75738 15.1665 2.2025 15.1665 2.66663V6.74996H15.8549C16.8652 6.74996 17.7915 6.74996 18.5429 6.85029C19.3735 6.96229 20.2485 7.22363 20.9695 7.94696C21.6929 8.66796 21.9542 9.54296 22.0662 10.3736C22.1665 11.1273 22.1665 12.0536 22.1665 13.0616V16.3913C22.3229 16.515 22.4745 16.648 22.6192 16.795C23.6832 17.859 24.1172 19.182 24.3132 20.645C24.4485 21.6576 24.4859 22.8616 24.4952 24.25H25.6665V15.99C25.6665 13.0546 25.6665 10.6536 25.9372 8.82196C26.2172 6.92263 26.8402 5.22863 28.4292 4.12729C30.0159 3.02596 31.8242 3.03763 33.7002 3.44129C35.5085 3.83329 37.7579 4.67563 40.5065 5.70463L40.7305 5.79096C42.1189 6.31129 43.2972 6.75229 44.2189 7.22129C45.1989 7.72063 46.0505 8.32263 46.6922 9.24663C47.3315 10.1706 47.5975 11.1763 47.7189 12.2706C47.8332 13.2996 47.8332 14.5573 47.8332 16.0413V47.5833H48.4165C48.8807 47.5833 49.3258 47.7677 49.654 48.0959C49.9822 48.424 50.1665 48.8692 50.1665 49.3333C50.1665 49.7974 49.9822 50.2425 49.654 50.5707C49.3258 50.8989 48.8807 51.0833 48.4165 51.0833H1.74988C1.28575 51.0833 0.84063 50.8989 0.512441 50.5707C0.184252 50.2425 -0.00012207 49.7974 -0.00012207 49.3333C-0.00012207 48.8692 0.184252 48.424 0.512441 48.0959C0.84063 47.7677 1.28575 47.5833 1.74988 47.5833H2.33321V25.8786C2.33321 23.781 2.33321 22.0333 2.51988 20.6473C2.71588 19.182 3.14988 17.859 4.21154 16.7973C4.35522 16.6533 4.50714 16.5177 4.66654 16.3913V13.0616C4.66654 12.0513 4.66654 11.125 4.76688 10.3736C4.87888 9.54296 5.14021 8.66796 5.86354 7.94696C6.58455 7.22363 7.45955 6.96229 8.29021 6.85029C9.04388 6.74996 9.97021 6.74996 10.9782 6.74996H11.6665V2.66663C11.6665 2.2025 11.8509 1.75738 12.1791 1.42919C12.5073 1.101 12.9524 0.916626 13.4165 0.916626ZM8.16654 15.0893C9.53855 14.9166 11.2512 14.9166 13.2952 14.9166H13.5379C15.5819 14.9166 17.2945 14.9166 18.6665 15.0893V13.1666C18.6665 12.0163 18.6619 11.3303 18.5965 10.8403C18.5818 10.699 18.5489 10.5602 18.4985 10.4273L18.4962 10.4203L18.4892 10.418C18.3563 10.3676 18.2175 10.3347 18.0762 10.32C17.5862 10.2546 16.9002 10.25 15.7499 10.25H11.0832C9.93288 10.25 9.24688 10.2546 8.75688 10.32C8.61556 10.3347 8.47674 10.3676 8.34388 10.418L8.33688 10.4203L8.33455 10.4273C8.2842 10.5602 8.25127 10.699 8.23655 10.8403C8.17121 11.3303 8.16654 12.0163 8.16654 13.1666V15.0893ZM5.83321 47.5833H11.6665V35.212C11.6665 33.1143 11.6665 31.3666 11.8532 29.9806C12.0492 28.5153 12.4832 27.1923 13.5449 26.1306C14.6089 25.0666 15.9319 24.6326 17.3949 24.4366C18.4075 24.3013 19.6069 24.264 20.9952 24.2546C20.9859 22.9246 20.9532 21.9213 20.8459 21.1116C20.6989 20.036 20.4492 19.574 20.1459 19.2706C19.8425 18.9673 19.3805 18.7176 18.3025 18.5706C17.1802 18.4236 15.6682 18.4166 13.4165 18.4166C11.1649 18.4166 9.65521 18.4213 8.52821 18.573C7.45255 18.7176 6.99055 18.9673 6.68721 19.273C6.38388 19.5763 6.13421 20.036 5.98721 21.1116C5.83788 22.2386 5.83321 23.7506 5.83321 26V47.5833ZM15.1665 47.5833H34.9999V35.3333C34.9999 33.084 34.9952 31.572 34.8435 30.445C34.6989 29.3693 34.4492 28.9073 34.1435 28.604C33.8402 28.3006 33.3805 28.051 32.3049 27.904C31.1779 27.7546 29.6659 27.75 27.4165 27.75H22.7499C20.5005 27.75 18.9885 27.7546 17.8615 27.904C16.7859 28.051 16.3239 28.3006 16.0205 28.604C15.7172 28.9073 15.4675 29.3693 15.3205 30.4473C15.1712 31.572 15.1665 33.084 15.1665 35.3333V47.5833ZM38.4999 47.5833H44.3332V16.1346C44.3332 14.5316 44.3309 13.4723 44.2399 12.658C44.1535 11.888 44.0065 11.5146 43.8129 11.2393C43.6239 10.964 43.3229 10.691 42.6345 10.341C41.9042 9.97229 40.9149 9.59663 39.4145 9.03429C36.4955 7.93996 34.4912 7.19096 32.9629 6.86429C31.4695 6.54229 30.8419 6.71263 30.4219 7.00429C30.0019 7.29363 29.6215 7.82329 29.3999 9.33296C29.1712 10.8776 29.1665 13.0196 29.1665 16.1346V24.2546C30.5549 24.264 31.7589 24.3013 32.7692 24.4366C34.2345 24.6326 35.5575 25.0666 36.6192 26.1306C37.6832 27.1923 38.1172 28.5153 38.3132 29.9806C38.4999 31.3666 38.4999 33.1166 38.4999 35.212V47.5833ZM18.6665 33C18.6665 32.5358 18.8509 32.0907 19.1791 31.7625C19.5073 31.4343 19.9524 31.25 20.4165 31.25H29.7499C30.214 31.25 30.6591 31.4343 30.9873 31.7625C31.3155 32.0907 31.4999 32.5358 31.4999 33C31.4999 33.4641 31.3155 33.9092 30.9873 34.2374C30.6591 34.5656 30.214 34.75 29.7499 34.75H20.4165C19.9524 34.75 19.5073 34.5656 19.1791 34.2374C18.8509 33.9092 18.6665 33.4641 18.6665 33ZM18.6665 40C18.6665 39.5358 18.8509 39.0907 19.1791 38.7625C19.5073 38.4343 19.9524 38.25 20.4165 38.25H29.7499C30.214 38.25 30.6591 38.4343 30.9873 38.7625C31.3155 39.0907 31.4999 39.5358 31.4999 40C31.4999 40.4641 31.3155 40.9092 30.9873 41.2374C30.6591 41.5656 30.214 41.75 29.7499 41.75H20.4165C19.9524 41.75 19.5073 41.5656 19.1791 41.2374C18.8509 40.9092 18.6665 40.4641 18.6665 40Z" fill="#00008B"/>
</svg>
