<svg width="50" height="55" viewBox="0 0 50 55" fill="none" xmlns="http://www.w3.org/2000/svg">
<path d="M14.7933 -0.262517L14.7934 -0.262524C15.1763 -0.313084 15.7765 -0.333202 16.3022 -0.333333C16.5474 -0.333405 17.0361 -0.289625 17.4504 -0.247088C17.6616 -0.225413 17.8598 -0.203358 18.0081 -0.185943C18.0822 -0.177247 18.1444 -0.169627 18.19 -0.163733C18.2125 -0.160809 18.2322 -0.158159 18.2475 -0.155919C18.255 -0.154823 18.263 -0.153594 18.2706 -0.152302L18.2853 -0.149591L18.2855 -0.149537C18.2873 -0.149177 18.2918 -0.148278 18.2979 -0.146825C18.8577 -0.0238299 19.4126 0.141809 19.9534 0.351177C23.1477 1.58754 25.8474 4.35249 26.0127 8.76819L25.6796 8.78066L26.0127 8.7682C26.1967 13.6891 24.4257 16.6267 22.8814 18.2301L22.8813 18.2301C21.0972 20.0823 18.7171 21.105 16.182 21.105C13.6469 21.105 11.2666 20.0822 9.48264 18.2301C7.93813 16.6267 6.16728 13.689 6.35145 8.76819C6.54212 3.66546 10.1114 0.775837 13.914 -0.113542L14.7933 -0.262517ZM14.7933 -0.262517C14.4775 -0.220768 14.1577 -0.170605 13.9141 -0.113563L14.7933 -0.262517ZM26.4598 41.2639L26.4598 41.2639C26.6248 42.1539 27.4805 42.7437 28.3708 42.5777C29.2614 42.4128 29.8496 41.5572 29.6847 40.6666L28.1234 32.2374C27.0016 26.1811 21.2924 23.5173 16.2248 23.5174C11.1575 23.5174 5.44832 26.1814 4.32678 32.2374L1.2472 48.8612L1.57496 48.922L1.2472 48.8613C1.15848 49.3403 1.28737 49.834 1.59896 50.2086C1.91053 50.5831 2.37249 50.7998 2.8597 50.7998L21.3324 50.7994C22.2381 50.7994 22.9723 50.065 22.9723 49.1595C22.9723 48.2538 22.2381 47.5196 21.3324 47.5196L4.83135 47.52L7.55179 32.8347L7.22403 32.7739L7.55179 32.8347C8.31659 28.7053 12.4011 26.7971 16.2248 26.7971C20.0489 26.797 24.1336 28.7052 24.8986 32.8347L26.4598 41.2639ZM15.1797 10.163L15.1798 10.1629C15.2934 10.0787 15.4038 9.99168 15.5117 9.90302C17.191 11.2639 19.2515 11.9877 21.3495 11.9877C21.7382 11.9877 22.1274 11.9614 22.515 11.9107C22.1861 13.559 21.5101 14.9258 20.5191 15.9545L20.5191 15.9545C19.3549 17.1632 17.8152 17.8251 16.1819 17.8251C14.5484 17.8251 13.0089 17.1631 11.8448 15.9546C10.8683 14.9409 10.1972 13.5993 9.863 11.9835C11.7597 11.945 13.6191 11.3195 15.1797 10.163ZM13.2268 7.52795L13.2268 7.52796C12.1746 8.30768 10.9143 8.71325 9.63817 8.70522C9.75668 6.79802 10.5863 5.39551 11.7617 4.44214C12.9293 3.49511 14.4522 2.98118 15.9849 2.88161C15.5564 4.90211 14.5969 6.5127 13.2268 7.52795ZM49.4467 39.6513V31.0785C49.4467 30.2084 48.7899 29.3779 47.8508 29.3779H34.4655C33.5358 29.3779 32.8399 30.1978 32.8399 31.0785V47.1472H29.4408C28.535 47.1472 27.8009 47.8816 27.8009 48.7871C27.8009 49.6928 28.5352 50.427 29.4408 50.427H34.4641H34.4642H34.4642H34.4642H34.4643H34.4643H34.4643H34.4644H34.4644H34.4644H34.4645H34.4645H34.4645H34.4645H34.4646H34.4646H34.4646H34.4647H34.4647H34.4647H34.4648H34.4648H34.4648H34.4648H34.4649H34.4649H34.4649H34.465H34.465H34.465H34.4651H34.4651H34.4651H34.4652H34.4652H34.4652H34.4652H34.4653H34.4653H34.4653H34.4654H34.4654H34.4655H34.4655H34.4655H34.4656H34.4656H34.4656H34.4657H34.4657H34.4657H34.4658H34.4658H34.4658H34.4658H34.4659H34.4659H34.4659H34.466H34.466H34.466H34.4661H34.4661H34.4661H34.4662H34.4662H34.4662H34.4662H34.4663H34.4663H34.4663H34.4664H34.4664H34.4664H34.4665H34.4665H34.4665H34.4665H34.4666H34.4666H34.4666H34.4667H34.4667H34.4668H39.4901C40.3959 50.427 41.13 49.6927 41.13 48.7871C41.13 47.8814 40.3957 47.1472 39.4901 47.1472H36.1197V41.281H47.8508C48.7679 41.281 49.4467 40.5452 49.4467 39.6513ZM36.1197 38.0012V32.6577H46.1669V38.0012H36.1197ZM22.7124 8.54519C20.9624 8.96087 19.1166 8.5525 17.6722 7.43169C18.3759 6.29818 18.8869 4.99793 19.1901 3.5738C21.0524 4.42482 22.5015 6.05046 22.7124 8.54519ZM14.548 29.7012V38.5407C14.548 39.4463 15.2821 40.1806 16.1879 40.1806C17.0936 40.1806 17.8278 39.4463 17.8278 38.5407V29.7012C17.8278 28.7956 17.0936 28.0613 16.1879 28.0613C15.2821 28.0613 14.548 28.7956 14.548 29.7012ZM42.3627 51.7202H26.568C25.6624 51.7202 24.9281 52.4545 24.9281 53.3601C24.9281 54.2658 25.6625 55 26.568 55H42.3627C43.2683 55 44.0026 54.2657 44.0026 53.3601C44.0026 52.4545 43.2683 51.7202 42.3627 51.7202Z" fill="#00008B" stroke="#00008B" stroke-width="0.666667"/>
</svg>
