<svg width="48" height="47" viewBox="0 0 48 47" fill="none" xmlns="http://www.w3.org/2000/svg">
<path d="M46.1794 7.64754L24.8452 0.472926C24.2989 0.286857 23.7071 0.286857 23.1607 0.472926L1.82647 7.64754C1.31741 7.81764 0.871008 8.13862 0.545528 8.56858C0.220048 8.99855 0.0306115 9.51752 0.0019457 10.0578C-0.000485806 10.1048 -0.000485806 10.152 0.0019457 10.199V28.1356C0.0019457 28.8491 0.282909 29.5334 0.783027 30.038C1.28315 30.5426 1.96145 30.826 2.66872 30.826C3.376 30.826 4.0543 30.5426 4.55442 30.038C5.05454 29.5334 5.3355 28.8491 5.3355 28.1356V13.9321L10.6046 15.7033C8.96934 18.8612 8.48339 22.4977 9.23133 25.9798C9.97928 29.4619 11.9138 32.5692 14.6981 34.7609C11.0545 36.5736 7.97079 39.356 5.77997 42.8076C5.58268 43.1035 5.44564 43.4359 5.37682 43.7857C5.308 44.1354 5.30877 44.4954 5.37909 44.8449C5.4494 45.1943 5.58786 45.5261 5.78642 45.8211C5.98497 46.1161 6.23966 46.3683 6.53567 46.5631C6.83169 46.7579 7.16313 46.8913 7.51073 46.9558C7.85833 47.0202 8.21516 47.0143 8.56047 46.9383C8.90578 46.8624 9.23269 46.718 9.52219 46.5135C9.81168 46.3089 10.058 46.0484 10.2468 45.747C13.4181 40.8234 18.4472 38.0007 24.003 38.0007C29.5587 38.0007 34.5878 40.8234 37.7702 45.747C37.959 46.0484 38.2053 46.3089 38.4948 46.5135C38.7843 46.718 39.1112 46.8624 39.4566 46.9383C39.8019 47.0143 40.1587 47.0202 40.5063 46.9558C40.8539 46.8913 41.1853 46.7579 41.4813 46.5631C41.7774 46.3683 42.0321 46.1161 42.2306 45.8211C42.4292 45.5261 42.5676 45.1943 42.6379 44.8449C42.7083 44.4954 42.709 44.1354 42.6402 43.7857C42.5714 43.4359 42.4343 43.1035 42.2371 42.8076C40.0441 39.352 36.9564 36.5671 33.3078 34.7541C36.0921 32.5625 38.0266 29.4552 38.7746 25.9731C39.5225 22.491 39.0366 18.8545 37.4013 15.6966L46.1794 12.7438C46.7098 12.5648 47.1709 12.2221 47.4976 11.7642C47.8243 11.3064 48.0001 10.7565 48.0001 10.1923C48.0001 9.62811 47.8243 9.07821 47.4976 8.62034C47.1709 8.16248 46.7098 7.81982 46.1794 7.64082V7.64754ZM24.003 5.85389L36.9035 10.199L24.003 14.5374L11.1135 10.199L24.003 5.85389ZM33.7811 22.7546C33.7814 24.2869 33.4279 25.7982 32.7486 27.1687C32.0693 28.5392 31.0829 29.7312 29.8676 30.6502C28.6523 31.5693 27.2415 32.19 25.747 32.4634C24.2526 32.7367 22.7156 32.655 21.2579 32.2248C19.8001 31.7946 18.4618 31.0278 17.3489 29.9851C16.236 28.9423 15.3791 27.6524 14.8463 26.2175C14.3134 24.7826 14.1192 23.2421 14.2791 21.7184C14.4389 20.1946 14.9483 18.7293 15.7671 17.4387L23.1607 19.9251C23.7072 20.1105 24.2987 20.1105 24.8452 19.9251L32.2389 17.4387C33.2473 19.0249 33.7827 20.8701 33.7811 22.7546Z" fill="#00008B"/>
</svg>
